<?xml version="1.0" encoding="utf-8"?>
<!-- Generator: Adobe Illustrator 24.0.0, SVG Export Plug-In . SVG Version: 6.00 Build 0)  -->
<svg version="1.1" id="Layer_1" xmlns="http://www.w3.org/2000/svg" xmlns:xlink="http://www.w3.org/1999/xlink" x="0px" y="0px"
	 viewBox="0 0 576 576" style="enable-background:new 0 0 576 576;" xml:space="preserve">
<style type="text/css">
	.st0{fill-rule:evenodd;clip-rule:evenodd;}
</style>
<g>
	<path class="st0" d="M153.5,282.8c0.6,0.3,1.3,0.4,1.8,0.8c2.4,1.7,4.9,2.1,7.5,0.9c2.4-1,4.7-2.2,6.9-3.6
		c19-12.5,37.2-26.1,54.3-41.2c2.3-2.1,4.4-4.4,6.4-6.8c1.6-1.8,3.2-2.5,5.8-2.2c4.8,0.6,9.8,0.6,14.6,0.5c3.4-0.1,6.8-0.6,10.1-1.1
		c0.8-0.1,1.6-0.7,2.7-1.1c-0.7-0.8-1.1-1.3-1.6-1.7c-4.4-3.4-9.1-6-14.9-5.7c-6.2,0.3-12.4,0.6-18.6,1.4
		c-10.2,1.4-20.3,3.4-29.7,7.6c-5.5,2.4-10.7,5.4-15.9,8.3c-1.3,0.7-2.2,0.9-3.4-0.1c-4.3-3.6-8.7-7.2-13.1-10.8
		c-1.3-1.1-1.4-2-0.8-3.8c1.3-3.7,2.4-7.6,2.9-11.5c2.5-19.7,9.1-38,16.9-56.1c6.5-15.1,14.5-29.4,23.2-43.3
		c0.1-0.2,0.3-0.4,0.6-0.5c-18.9,35-27.8,72.5-27.6,112.4c0.9-0.1,1.8-0.2,2.6-0.4c14.3-3.2,28.6-6.4,42.8-9.7
		c4.1-0.9,8.2-2,12.1-3.5c3.8-1.4,7.2-1,10.6,0.7c2.4,1.2,4.6,2.7,7,3.8c1.6,0.7,3.4,1.2,5.1,1.6c0.6,0.2,1.3-0.2,2-0.3
		c-0.1-0.6,0-1.4-0.4-1.9c-2.3-3.2-4.7-6.4-7.2-9.5c-0.4-0.5-1.6-0.7-2.5-0.6c-5.7,0.1-11.3,0.5-16.9,0.5c-5,0-10-0.5-15-0.4
		c-2.5,0.1-5,0.9-7.3,1.7c-1.2,0.4-2.2,1.5-3,2.4c-0.7,0.8-1.3,1-2,0.4c-3-2.6-6.1-5.1-9-7.8c-0.5-0.4-0.4-1.6-0.3-2.4
		c2.4-20.9,10-40.2,18-59.4c3.7-8.9,7.7-17.6,11.6-26.4c0.2-0.5,0.5-1,1.2-1.3c-0.7,2.3-1.3,4.5-2,6.8c-3.7,11.4-7.4,22.7-10,34.4
		c-2.6,11.9-4.2,24-5,36.2c-0.1,1.8-0.2,3.7-0.3,5.5c0,1.3,0.4,2.1,1.9,2.3c8.6,1.3,17.2,1.5,25.9,0.4c4.5-0.6,8.9-1.4,13.3-2
		c0.7-0.1,1.6,0.1,2,0.5c3.4,3,6.8,6,10.2,9.1c1.3,1.2,2.5,2.4,3.8,3.5c0.5,0.4,1.1,0.7,1.9,1.1c0.7-2.9-0.2-6.3,2.9-7.9
		c2.1-1.1,4.2-2,6.3-3c0.1,0.2,0.2,0.4,0.4,0.6c-0.4,0.4-0.8,0.8-1.2,1.3c-2.1,2.5-3.9,5.2-3.4,8.7c0.3,2.1,0.9,2.3,2.6,1
		c0.9-0.7,1.8-1.4,2.7-2.1c-0.1-0.2-0.2-0.3-0.3-0.5c1.1,0.6,2.3,1,3.4,1.7c1.5,0.8,2.8,0.7,4.2-0.2c0.5-0.3,1-0.6,1.5-0.9
		c1.9-1.1,2.1-1,3.3,0.8c0.1,0.1,0.1,0.3,0.3,0.4c0.8,0.6,1.7,1.3,2.5,1.9c0.4-1.1,1.4-2.3,1.2-3.2c-0.4-1.9-1.4-3.7-2.3-5.5
		c-0.5-1-1.2-2-1.6-3.1c5.2,1.3,8.7,4.2,9.2,10.4c3.2-3,6.1-5.6,8.9-8.3c1.8-1.7,3.4-3.6,5.2-5.3c0.4-0.4,1.3-0.8,1.9-0.6
		c9.3,2,18.8,2.1,28.2,2.3c4,0.1,8.1,0.1,12.1,0.1c2.4,0,2.7-0.4,2.7-2.8c0-12.6-1.6-25-3.9-37.4c-2.7-14.6-7.4-28.6-12.5-42.5
		c-0.6-1.7-0.8-3.5-1.3-5.3c0.2,0,0.5,0,0.7,0c0.5,0.9,1,1.8,1.4,2.7c2.5,5.4,5.1,10.8,7.5,16.3c9.6,22,17.1,44.6,22.5,68
		c0.7,2.9-0.2,4.9-2.9,6.1c-2.9,1.2-5.3,2.8-6.9,5.5c-0.5,0.8-1.1,0.8-2,0.3c-1.5-0.9-3.2-2.1-4.9-2.3c-6.1-0.6-12.3-1-18.5-1.3
		c-5.8-0.3-11.6,0.1-17.4-1.1c-3-0.6-5.8,0.5-7.6,3.1c-1.8,2.6-3.5,5.3-5.2,7.9c-0.3,0.5-0.5,1-0.9,1.9c4-1,7.6-1.4,10.9-3.3
		c1.6-1,3.3-1.9,5-2.7c2.1-1.1,4.3-1.5,6.7-0.9c4.4,1.3,8.7,2.8,13.1,3.8c9.4,2.2,18.8,4.1,28.2,6.3c5.5,1.3,11,3.1,16.4,4.8
		c2.6,0.8,3.2,0.4,3.1-2.2c0-2.7-0.2-5.4-0.2-8.1c-0.2-12.2-1.6-24.2-3.9-36.1c-2.7-13.4-5.7-26.8-11-39.5
		c-3.5-8.3-7.6-16.4-11.5-24.5c-0.3-0.7-0.5-1.3-0.9-2.4c0.5,0.3,0.6,0.4,0.7,0.5c0.4,0.5,0.8,1,1.1,1.5
		c12.8,19.3,23.8,39.6,30.5,61.8c3.8,12.6,7.1,25.2,8.5,38.3c0.4,3.7,0,7.9,3.8,10.5c-0.2,0.3-0.3,0.5-0.4,0.6
		c-3.8,3.1-7.6,6.2-11.4,9.3c-1.3,1.1-2.5,2.2-3.4,3.6c-0.8,1.1-1.4,1.3-2.5,0.6c-1.8-1.1-3.5-2.3-5.4-3.2c-6.5-2.8-13-5.5-19.6-8.2
		c-8.4-3.4-17.1-5.5-26.2-6c-4.7-0.3-9.3-0.4-14-0.9c-6.6-0.7-11.4,3.1-16.9,6.6c1.5,0.8,2.5,1.5,3.6,1.8c2.3,0.6,4.7,1.1,7.1,1.2
		c5.3,0.2,10.6,0.5,15.8,0.1c3-0.2,5.2,0.2,7.3,2.4c8.8,8.9,18.1,17.2,28,25c11.7,9.2,24.2,17.1,36.5,25.3c2.1,1.4,4.3,2.1,6.7,1.3
		c1.7-0.5,3.2-1.5,4.9-2.3c0.1,0.1,0.2,0.4,0.4,0.7c0,3.6,0,7.1,0,10.7c-0.2,2.9-0.5,5.8-0.6,8.7c-1.3,31.4-9.9,61-22.8,89.5
		c-4.6,10.2-9.5,20.3-14.3,30.4c-0.4,0.9-1.1,1.7-1.6,2.5c-0.2-0.1-0.4-0.2-0.5-0.3c0.3-1,0.6-2,1.1-3c8.1-18.1,13.7-37.1,18.2-56.4
		c2.9-12.4,4.7-24.9,5.2-37.5c0.3-7.7,0.4-15.4,0.7-23.1c0.2-5-1.7-9.1-5.5-12.3c-8.7-7.2-17.5-14.3-26.3-21.4
		c-12.1-9.7-24.2-19.2-36.3-28.9c-3.3-2.7-7.2-3.2-11.1-3.6c-4.1-0.5-8.1-0.9-12.2-1.3c-0.5,0-1,0-2,0c0.8,1.1,1.1,1.7,1.7,2.3
		c6.2,6.4,13.3,11.6,20.6,16.6c1.1,0.7,2.2,1.4,3.1,2.2c1.2,1.1,2.4,1.3,3.8,0.6c0.5-0.2,1-0.3,1.5-0.5c1.2-0.4,1.8,0,1.7,1.3
		c-0.1,1.5-0.3,3.1-0.3,4.6c0,6.4,0.3,12.9,0.2,19.3c-0.2,12-0.4,24.1-1,36.1c-0.5,9.6-1.2,19.2-2.3,28.7
		c-3.5,28.2-8.4,56.2-18.3,83c-3.8,10.3-8.9,19.8-15.7,28.5c-0.8,1.1-1.6,2.2-2.5,3.6c-0.7-2.4-0.4-4.3,0.6-6.1
		c9.7-17.3,15.3-36,18.6-55.5c2.7-16,4.6-32.1,5.2-48.4c0.5-12.9,0.3-25.9,0.2-38.8c0-7.2-0.4-14.4-0.7-21.6
		c-0.2-5.2-0.6-10.4-1-15.7c-0.1-1.4,0.2-2.6,1.2-3.8c2-2.3,2.1-4.3,0.2-6.9c-2.6-3.4-5.3-6.7-8.2-9.8c-4.2-4.6-8.7-8.8-14.1-11.9
		c-0.6-0.4-1.3-0.6-2.2-1c-0.1,0.8-0.4,1.3-0.3,1.8c0.6,4.1,1.5,8,4.5,11.1c2.3,2.3,1.8,5.3,1.5,8c-1.8,18.3-6.6,35.9-13.1,53.1
		c-2.3,6.2-5.1,12.2-7.7,18.3c-0.4,0.9-1,1.6-1.5,2.4c-0.2,0-0.5-0.1-0.7-0.1c-0.2-1.3-0.3-2.6-0.5-3.9c-0.1-0.6-0.5-1.2-0.7-1.9
		c-0.3,0.6-0.7,1.2-0.9,1.9c-0.3,1.3-0.5,2.7-0.8,4.1c-0.2,0-0.5,0.1-0.7,0.1c-0.5-0.7-1-1.3-1.3-2c-8.2-18.1-15.1-36.7-18-56.5
		c-0.9-6-1.6-12.1-2.2-18.1c-0.3-3,0.9-5.5,2.6-8c1.6-2.4,2.9-5,4.2-7.7c0.4-0.8,0.3-1.9,0.4-3.3c-1.2,0.5-2,0.8-2.7,1.1
		c-6.4,3.3-11.5,8.3-16.3,13.5c-2.8,3-5.5,6.2-8.2,9.4c-1.6,1.9-1.6,3.3,0.5,4.5c2.4,1.3,2.4,3.1,2.2,5.4
		c-0.5,5.6-0.7,11.1-0.9,16.7c-0.5,14-1.2,27.9-1.2,41.9c0,10.9,0.8,21.7,1.5,32.6c0.5,8.1,1.2,16.2,2.2,24.2
		c2.4,18.3,6.3,36.4,13.9,53.4c1.7,3.8,3.8,7.3,5.9,10.9c1.3,2.3,1.9,4.5,1.3,7.1c-0.3,0-0.7,0-1,0c-0.5-0.6-1-1.1-1.4-1.7
		c-8-10.4-14.3-21.6-18-34.2c-5.1-17.3-8.8-35-11.9-52.8c-3.4-19.2-5.2-38.6-6.4-58.1c-0.4-6.4-0.7-12.9-0.8-19.3
		c-0.2-11.4-0.3-22.8-0.2-34.2c0-1.9,0.7-3.9,1.1-5.8c0.4,0,0.6,0,0.7,0c0.2,0,0.3,0.1,0.5,0.2c1.8,1.3,3.2,0.6,4.8-0.5
		c7.6-4.8,14.3-10.7,21-16.6c1.3-1.2,2.7-2.3,4-3.4c0-0.1-0.1-0.3-0.1-0.4c-0.6,0-1.2,0-1.8,0c-3.5,0.3-7,0.8-10.5,0.9
		c-6.5,0-12.2,2.3-17.3,6.2c-7.4,5.7-14.8,11.4-22.2,17.1c-13,10.1-25.9,20.2-37.6,31.8c-2.3,2.3-3.3,4.8-3.3,8
		c0,5.7-0.1,11.4-0.1,17.1c0,10.4,0.8,20.7,2.5,30.9c3.8,23.3,9.3,46.1,18.9,67.7c0.9,2,1.6,4,2.3,6c-0.1,0.1-0.3,0.2-0.4,0.2
		c-0.6-0.8-1.2-1.5-1.7-2.3c-5.7-8.8-10.3-18.1-14.2-27.8c-6.6-16.1-11.4-32.9-16-49.7c-2.9-10.5-5.2-21.1-5.5-32.1
		c-0.2-6.7-0.4-13.5-0.6-20.2c-0.1-2.2-0.3-4.4-0.5-6.7C153.5,284.7,153.5,283.7,153.5,282.8z"/>
</g>
</svg>
